# Blender v2.79 (sub 0) OBJ File: 'mouse.blend'
# www.blender.org
mtllib Mouse.mtl
o Cube.001_Cube.004
v 1.305078 0.001945 0.652575
v 1.314386 0.101649 0.655522
v 1.296242 0.001945 0.328201
v 1.306643 0.054974 0.326889
v 1.455559 0.001945 0.652575
v 1.446250 0.101649 0.655522
v 1.464395 0.001945 0.328201
v 1.453993 0.054974 0.326889
v 1.380318 -0.003227 0.312804
v 1.380318 0.054974 0.312804
v 1.380318 -0.003227 0.678105
v 1.380318 0.101649 0.678105
v 1.424422 0.054974 0.320156
v 1.419786 -0.003227 0.666664
v 1.424422 -0.003227 0.320156
v 1.419786 0.101649 0.666664
v 1.336215 -0.003227 0.320156
v 1.340850 0.101649 0.666664
v 1.336215 0.054974 0.320156
v 1.340850 -0.003227 0.666664
v 1.285001 0.001945 0.489343
v 1.296793 0.111366 0.489343
v 1.475636 0.001945 0.489343
v 1.463844 0.111366 0.489343
v 1.380318 0.111366 0.489343
v 1.380318 -0.003227 0.489343
v 1.430318 0.111366 0.489343
v 1.430318 -0.003227 0.489343
v 1.330318 -0.003227 0.489343
v 1.330318 0.111366 0.489343
v 1.285001 0.001945 0.569738
v 1.463844 0.114256 0.569738
v 1.380318 0.114256 0.569738
v 1.380318 -0.003227 0.569738
v 1.430318 0.114256 0.569738
v 1.430318 -0.003227 0.569738
v 1.330318 -0.003227 0.569738
v 1.330318 0.114256 0.569738
v 1.296793 0.114256 0.569738
v 1.475636 0.001945 0.569738
v 1.301382 0.046675 0.651676
v 1.292112 0.029461 0.328463
v 1.468525 0.029461 0.328463
v 1.459255 0.046675 0.651676
v 1.380318 0.052638 0.678105
v 1.380318 0.031366 0.312804
v 1.419786 0.052638 0.666664
v 1.424422 0.031366 0.320156
v 1.336215 0.031366 0.320156
v 1.340850 0.052638 0.666664
v 1.480318 0.047521 0.489343
v 1.280318 0.047521 0.489343
v 1.280318 0.048670 0.569738
v 1.480318 0.048670 0.569738
v 1.301718 0.088662 0.408116
v 1.470015 0.001945 0.408772
v 1.290621 0.001945 0.408772
v 1.458918 0.088662 0.408116
v 1.380318 0.088662 0.401073
v 1.380318 -0.003227 0.401073
v 1.427370 0.088662 0.404749
v 1.427370 -0.003227 0.404749
v 1.333267 -0.003227 0.404749
v 1.333267 0.088662 0.404749
v 1.474422 0.038491 0.408903
v 1.286215 0.038491 0.408903
v 1.427101 0.062294 0.320610
v 1.456673 0.062294 0.327344
v 1.382998 0.062294 0.313259
v 1.461598 0.095982 0.408571
v 1.382998 0.095982 0.401528
v 1.430050 0.095982 0.405204
v 1.301718 0.098242 0.408116
v 1.306643 0.064554 0.326889
v 1.336215 0.064554 0.320156
v 1.380318 0.064554 0.312804
v 1.380318 0.098242 0.401073
v 1.333267 0.098242 0.404749
v 1.358267 0.054974 0.316480
v 1.360584 -0.003227 0.672385
v 1.358267 -0.003227 0.316480
v 1.360584 0.101649 0.672385
v 1.355318 0.111366 0.489343
v 1.355318 -0.003227 0.489343
v 1.355318 0.114256 0.569738
v 1.355318 -0.003227 0.569738
v 1.360584 0.052638 0.672385
v 1.358267 0.031366 0.316480
v 1.356792 -0.003227 0.402911
v 1.356792 0.088662 0.402911
v 1.358267 0.064554 0.316480
v 1.356792 0.098242 0.402911
v 1.402370 -0.003227 0.316480
v 1.400052 0.101649 0.672385
v 1.402370 0.054974 0.316480
v 1.400052 -0.003227 0.672385
v 1.405318 -0.003227 0.489343
v 1.405318 0.111366 0.489343
v 1.405318 -0.003227 0.569738
v 1.405318 0.114256 0.569738
v 1.402370 0.031366 0.316480
v 1.400052 0.052638 0.672385
v 1.403844 0.088662 0.402911
v 1.403844 -0.003227 0.402911
v 1.405050 0.062294 0.316935
v 1.406524 0.095982 0.403366
vt 0.613603 0.113357
vt 0.567966 0.000026
vt 0.637435 0.001291
vt 0.804678 0.297672
vt 0.868082 0.364198
vt 0.799576 0.396897
vt 0.409531 0.580996
vt 0.590681 0.466017
vt 0.586520 0.581752
vt 0.843326 0.548843
vt 0.711747 0.489305
vt 0.859379 0.460047
vt 0.312177 0.359508
vt 0.366400 0.475439
vt 0.289553 0.495130
vt 0.233967 0.586564
vt 0.325312 0.550720
vt 0.338944 0.610259
vt 0.233967 0.699054
vt 0.345942 0.743452
vt 0.233967 0.755300
vt 0.204765 0.359508
vt 0.162372 0.503134
vt 0.151059 0.359508
vt 0.711700 0.682037
vt 0.843293 0.637639
vt 0.843309 0.682037
vt 0.868060 0.148831
vt 0.804666 0.198448
vt 0.804665 0.148836
vt 0.711748 0.785973
vt 0.843326 0.726435
vt 0.859379 0.815231
vt 0.233967 0.811545
vt 0.325312 0.847389
vt 0.233967 0.886971
vt 0.258471 0.359508
vt 0.247159 0.503134
vt 0.868066 0.248056
vt 0.804672 0.248060
vt 0.868060 0.032689
vt 0.804665 0.099224
vt 0.799550 0.000000
vt 0.097353 0.359508
vt 0.043131 0.475439
vt 0.000000 0.359531
vt 0.233967 0.642809
vt 0.345943 0.654657
vt 0.711700 0.593241
vt 0.843309 0.593241
vt 0.004497 0.593197
vt 0.132492 0.642809
vt 0.002249 0.646126
vt 0.012074 0.134304
vt 0.097353 0.247018
vt 0.000000 0.247041
vt 0.305844 0.128652
vt 0.258471 0.247018
vt 0.255305 0.126081
vt 0.008616 0.875890
vt 0.132492 0.811545
vt 0.132492 0.886971
vt 0.154226 0.126081
vt 0.204765 0.247018
vt 0.151059 0.247018
vt 0.002249 0.751983
vt 0.132492 0.699054
vt 0.132492 0.755300
vt 0.008616 0.522219
vt 0.132492 0.586564
vt 0.397456 0.134304
vt 0.312177 0.247018
vt 0.477955 0.806774
vt 0.589605 0.694209
vt 0.613511 0.806405
vt 0.586686 0.337856
vt 0.417288 0.226389
vt 0.589771 0.225422
vt 0.590598 0.453919
vt 0.409531 0.338818
vt 0.132492 0.511138
vt 0.409531 0.247041
vt 0.417289 0.693450
vt 0.711684 0.581423
vt 0.711684 0.693883
vt 0.711774 0.338310
vt 0.710400 0.455556
vt 0.711774 0.225873
vt 0.711365 0.806292
vt 0.993338 0.548843
vt 0.993322 0.593241
vt 0.725661 0.009297
vt 0.711774 0.099230
vt 0.711787 0.297679
vt 0.711781 0.248067
vt 0.979492 0.806915
vt 0.993338 0.726435
vt 0.711775 0.198455
vt 0.711775 0.148843
vt 0.993306 0.637639
vt 0.993322 0.682037
vt 0.979492 0.468363
vt 0.710546 0.464487
vt 0.725685 0.387610
vt 0.711390 0.113580
vt 0.711005 0.001286
vt 0.637416 0.918600
vt 0.711047 0.918701
vt 0.568108 0.920079
vt 0.385382 0.021567
vt 0.299510 0.010287
vt 0.893785 0.099217
vt 0.868059 0.099219
vt 0.378669 0.517169
vt 0.398325 0.582116
vt 0.378668 0.588147
vt 0.157393 0.005143
vt 0.204765 0.123509
vt 0.548609 0.919597
vt 0.458457 0.806292
vt 0.252138 0.005143
vt 0.024149 0.021567
vt 0.103687 0.128652
vt 0.352941 0.616996
vt 0.378668 0.687977
vt 0.352943 0.687974
vt 0.477886 0.113193
vt 0.857919 0.865018
vt 1.000000 0.822935
vt 0.999670 0.875914
vt 0.864986 0.981690
vt 0.999340 0.928894
vt 1.000000 1.000000
vt 0.398326 0.635045
vt 0.378668 0.641076
vt 0.887718 0.204471
vt 0.887724 0.254083
vt 0.393932 0.849515
vt 0.378668 0.707287
vt 0.393932 0.694005
vt 0.887730 0.303695
vt 0.887739 0.370225
vt 0.720828 0.833541
vt 0.855182 0.886336
vt 0.715838 0.900425
vt 0.855512 0.939316
vt 0.713761 0.950212
vt 0.542254 0.000000
vt 0.893785 0.148830
vt 0.352941 0.843544
vt 0.373352 0.704360
vt 0.373352 0.859926
vt 0.352943 0.511138
vt 0.378667 0.564070
vt 0.352942 0.564067
vt 0.378666 0.616999
vt 0.893785 0.198442
vt 0.868060 0.198443
vt 0.855842 0.992296
vt 0.711684 1.000000
vt 0.110021 0.010287
vt 0.000000 0.699055
vt 0.711684 0.637639
vt 0.352941 0.699054
vt 0.119978 0.495130
vt 0.868072 0.297668
vt 0.398327 0.687974
vt 0.378669 0.694005
vt 0.859996 0.914806
vt 0.204765 0.000000
vt 0.004497 0.804912
vt 0.204765 0.511138
vt 0.711716 0.726435
vt 0.338944 0.787850
vt 0.442375 0.460047
vt 0.711716 0.548843
vt 0.409531 0.359531
vt 0.233967 0.511138
vt 0.442162 0.460047
vt 0.893785 0.032687
vt 0.398327 0.511138
vt 0.855842 0.815231
vt 0.378668 0.862797
vt 0.855842 0.815231
vt 0.452174 0.113166
vt 0.352941 0.687977
vt 0.378668 0.511142
vn -0.8660 0.4860 -0.1180
vn 0.1868 0.0459 -0.9813
vn 0.9397 0.2361 0.2473
vn -0.3575 0.0193 0.9337
vn 0.1493 -0.9887 0.0162
vn -0.0568 0.9892 0.1348
vn 0.0000 0.9925 0.1219
vn 0.0000 -1.0000 -0.0000
vn 0.2784 0.0000 0.9605
vn -0.1644 0.0000 -0.9864
vn 0.3575 0.0193 0.9337
vn 0.0000 0.9894 0.1454
vn 0.1644 0.0000 -0.9864
vn -0.1868 0.0459 -0.9813
vn -0.1133 -0.9932 0.0275
vn -0.0358 0.9917 0.1236
vn -0.2784 0.0000 0.9605
vn -0.0199 0.9669 -0.2543
vn -0.1134 -0.9935 -0.0079
vn 0.0000 0.9631 -0.2692
vn 0.0000 0.9672 -0.2541
vn -0.0277 0.9652 -0.2600
vn 0.1208 -0.9927 -0.0042
vn 0.9508 0.2922 -0.1025
vn -0.9683 0.2499 -0.0036
vn -0.9397 0.2361 0.2473
vn 0.0000 0.9994 -0.0359
vn -0.1134 -0.9936 0.0000
vn 0.1134 -0.9936 0.0000
vn 0.9683 0.2499 -0.0036
vn 0.9948 -0.1022 0.0000
vn -0.9691 -0.0754 0.2349
vn -0.9948 -0.1022 0.0000
vn 0.9905 -0.1192 -0.0691
vn -0.1973 0.0000 -0.9803
vn 0.3665 0.0000 0.9304
vn -0.3665 0.0000 0.9304
vn 0.9691 -0.0754 0.2349
vn 0.1973 0.0000 -0.9803
vn -0.9867 -0.1474 -0.0688
vn -0.9905 -0.1192 -0.0691
vn 0.9867 -0.1474 -0.0688
vn 0.8660 0.4860 -0.1180
vn 0.1292 -0.9916 -0.0045
vn -0.2220 0.0000 -0.9750
vn -0.1061 -0.0230 0.9941
vn 0.9337 -0.3472 0.0874
vn -0.1212 -0.9926 -0.0085
vn 0.1061 0.0000 0.9944
vn -0.9508 0.2922 -0.1025
vn 0.0284 0.9312 -0.3634
vn 0.0411 0.9220 -0.3849
vn -0.0778 -0.0334 0.9964
vn 0.1644 0.0011 -0.9864
vn -0.9280 0.3480 -0.1328
vn 0.2220 -0.0207 -0.9748
vn -0.0845 0.9247 -0.3712
vn -0.0606 0.9297 -0.3634
vn -0.9982 0.0000 -0.0605
vn 1.0000 0.0000 0.0000
vn 0.0779 0.0000 0.9970
vn -0.0593 0.9326 -0.3559
vn -0.0195 0.9683 -0.2491
vn -0.0335 0.9927 0.1155
vn 0.0290 0.9283 -0.3707
vn 0.0000 0.9658 -0.2592
vn 0.0000 0.9916 0.1290
vn -0.9412 0.2881 -0.1765
vn 0.2220 0.0000 -0.9750
vn 0.9514 0.2093 0.2259
vn -0.3881 0.0000 0.9216
vn 0.1133 -0.9932 0.0275
vn 0.0335 0.9927 0.1155
vn 0.3881 0.0000 0.9216
vn 0.0568 0.9892 0.1348
vn -0.1493 -0.9887 0.0162
vn -0.1208 -0.9927 -0.0042
vn 0.0277 0.9652 -0.2600
vn 0.0195 0.9683 -0.2491
vn 0.1134 -0.9935 -0.0079
vn 0.9604 0.2478 -0.1275
vn -0.9698 0.2436 -0.0088
vn -0.9514 0.2093 0.2259
vn 0.9698 0.2436 -0.0088
vn 0.9950 -0.0997 0.0014
vn -0.9645 -0.0967 0.2456
vn -0.9950 -0.0997 0.0014
vn 0.9929 -0.1020 -0.0613
vn -0.1843 -0.0183 -0.9827
vn 0.3536 -0.0104 0.9353
vn -0.3536 -0.0104 0.9353
vn 0.9645 -0.0967 0.2456
vn 0.1843 -0.0183 -0.9827
vn -0.9911 -0.1193 -0.0593
vn -0.9929 -0.1020 -0.0613
vn 0.9911 -0.1193 -0.0593
vn 0.9412 0.2881 -0.1765
vn 0.1212 -0.9926 -0.0085
vn -0.1292 -0.9916 -0.0045
vn -0.9604 0.2478 -0.1275
vn 0.0593 0.9326 -0.3559
vn 0.0845 0.9247 -0.3712
vn -0.9281 0.3480 -0.1328
vn -0.0411 0.9220 -0.3849
vn -0.0290 0.9283 -0.3707
vn -0.0284 0.9312 -0.3634
vn 0.0606 0.9297 -0.3634
vn 0.0199 0.9669 -0.2543
vn 0.0358 0.9917 0.1236
usemtl Material.006
s off
f 66/1/1 4/2/1 42/3/1
f 48/4/2 8/5/2 43/6/2
f 32/7/3 44/8/3 54/9/3
f 50/10/4 2/11/4 41/12/4
f 36/13/5 5/14/5 14/15/5
f 38/16/6 2/17/6 18/18/6
usemtl Material.004
f 33/19/7 94/20/7 100/21/7
usemtl Material.006
f 34/22/8 80/23/8 86/24/8
usemtl Material.004
f 94/25/9 45/26/9 102/27/9
f 79/28/10 46/29/10 88/30/10
usemtl Material.006
f 6/31/11 47/32/11 44/33/11
f 35/34/12 6/35/12 32/36/12
f 99/37/8 14/15/8 96/38/8
f 95/39/13 48/4/13 101/40/13
f 4/41/14 49/42/14 42/43/14
f 37/44/15 1/45/15 31/46/15
f 85/47/16 18/18/16 82/48/16
f 82/49/17 50/10/17 87/50/17
f 64/51/18 83/52/18 90/53/18
f 57/54/19 29/55/19 21/56/19
f 62/57/8 97/58/8 104/59/8
f 58/60/20 27/61/20 24/62/20
f 89/63/8 26/64/8 84/65/8
usemtl Material.004
f 103/66/21 25/67/21 98/68/21
usemtl Material.006
f 55/69/22 30/70/22 64/51/22
f 56/71/23 28/72/23 62/57/23
f 58/73/24 51/74/24 65/75/24
f 53/76/25 22/77/25 52/78/25
f 41/79/26 39/80/26 53/76/26
f 30/70/27 85/47/27 83/52/27
f 21/56/28 37/44/28 31/46/28
f 28/72/8 99/37/8 97/58/8
f 24/62/27 35/34/27 32/36/27
f 26/64/8 86/24/8 84/65/8
usemtl Material.004
f 25/67/27 100/21/27 98/68/27
usemtl Material.006
f 22/81/27 38/16/27 30/70/27
f 23/82/29 36/13/29 28/72/29
f 24/83/30 54/9/30 51/74/30
f 51/74/31 40/84/31 23/85/31
f 41/79/32 31/86/32 1/87/32
f 31/86/33 52/78/33 21/88/33
f 65/75/34 23/85/34 56/89/34
f 87/50/17 20/90/17 80/91/17
f 3/92/35 49/42/35 17/93/35
f 101/40/13 15/94/13 93/95/13
f 5/96/36 47/32/36 14/97/36
usemtl Material.004
f 88/30/10 9/98/10 81/99/10
f 102/27/9 11/100/9 96/101/9
usemtl Material.006
f 50/10/37 1/102/37 20/90/37
f 40/84/38 44/8/38 5/103/38
f 48/4/39 7/104/39 15/94/39
f 57/105/40 42/3/40 3/106/40
f 21/88/41 66/1/41 57/105/41
f 43/107/42 56/89/42 7/108/42
f 8/109/43 65/75/43 43/107/43
f 7/110/44 62/57/44 15/111/44
usemtl Material.001
f 4/41/45 75/112/45 19/113/45
f 58/114/46 72/115/46 61/116/46
usemtl Material.006
f 81/117/8 60/118/8 89/63/8
usemtl Material.001
f 58/73/47 68/119/47 70/120/47
usemtl Material.006
f 15/111/8 104/59/8 93/121/8
f 3/122/48 63/123/48 57/54/48
usemtl Material.001
f 64/124/49 73/125/49 55/126/49
usemtl Material.006
f 52/78/50 55/127/50 66/1/50
usemtl Material.001
f 105/128/51 71/129/51 106/130/51
f 68/131/52 72/132/52 70/133/52
f 61/116/53 106/134/53 103/135/53
f 95/39/54 69/136/54 105/137/54
f 59/138/55 69/139/55 10/140/55
f 8/5/56 67/141/56 68/142/56
f 74/143/57 78/144/57 75/145/57
f 75/145/58 92/146/58 91/147/58
f 55/127/59 74/148/59 4/2/59
f 19/113/10 91/149/10 79/28/10
f 59/150/60 76/151/60 77/152/60
f 59/153/61 92/154/61 90/155/61
f 90/155/61 78/156/61 64/124/61
f 79/28/10 76/157/10 10/158/10
f 91/147/62 77/159/62 76/160/62
usemtl Material.006
f 17/161/8 89/63/8 63/123/8
f 49/42/10 81/99/10 17/93/10
usemtl Material.004
f 45/26/17 80/91/17 11/100/17
usemtl Material.006
f 84/65/8 37/44/8 29/55/8
usemtl Material.004
f 83/52/27 33/19/27 25/67/27
usemtl Material.006
f 63/123/8 84/65/8 29/55/8
usemtl Material.004
f 90/53/63 25/67/63 59/162/63
f 12/163/17 87/50/17 45/26/17
f 33/19/64 82/48/64 12/164/64
usemtl Material.006
f 19/113/10 88/30/10 49/42/10
f 86/24/8 20/165/8 37/44/8
usemtl Material.001
f 13/166/54 105/137/54 67/141/54
f 103/135/53 71/167/53 59/168/53
f 67/169/65 106/130/65 72/132/65
usemtl Material.006
f 93/121/8 60/118/8 9/170/8
f 47/32/9 96/101/9 14/97/9
usemtl Material.004
f 46/29/13 93/95/13 9/98/13
usemtl Material.006
f 98/68/27 35/34/27 27/61/27
f 97/58/8 34/22/8 26/64/8
f 61/171/66 98/68/66 27/61/66
f 104/59/8 26/64/8 60/118/8
usemtl Material.004
f 10/158/13 101/40/13 46/29/13
usemtl Material.006
f 34/22/8 96/38/8 11/172/8
f 16/173/9 102/27/9 47/32/9
f 100/21/67 16/174/67 35/34/67
f 66/1/68 55/127/68 4/2/68
f 48/4/69 13/166/69 8/5/69
f 32/7/70 6/175/70 44/8/70
f 50/10/71 18/176/71 2/11/71
f 36/13/72 40/177/72 5/14/72
f 38/16/12 39/178/12 2/17/12
usemtl Material.004
f 33/19/73 12/164/73 94/20/73
usemtl Material.006
f 34/22/8 11/172/8 80/23/8
usemtl Material.004
f 94/25/9 12/163/9 45/26/9
f 79/28/10 10/158/10 46/29/10
usemtl Material.006
f 6/31/74 16/173/74 47/32/74
f 35/34/75 16/174/75 6/35/75
f 99/37/8 36/13/8 14/15/8
f 95/39/13 13/166/13 48/4/13
f 4/41/45 19/113/45 49/42/45
f 37/44/76 20/165/76 1/45/76
f 85/47/67 38/16/67 18/18/67
f 82/49/17 18/176/17 50/10/17
f 64/51/66 30/70/66 83/52/66
f 57/54/77 63/123/77 29/55/77
f 62/57/8 28/72/8 97/58/8
f 58/60/78 61/171/78 27/61/78
f 89/63/8 60/118/8 26/64/8
usemtl Material.004
f 103/66/79 59/162/79 25/67/79
usemtl Material.006
f 55/69/20 22/81/20 30/70/20
f 56/71/80 23/82/80 28/72/80
f 58/73/81 24/83/81 51/74/81
f 53/76/82 39/80/82 22/77/82
f 41/79/83 2/179/83 39/80/83
f 30/70/27 38/16/27 85/47/27
f 21/56/28 29/55/28 37/44/28
f 28/72/8 36/13/8 99/37/8
f 24/62/27 27/61/27 35/34/27
f 26/64/8 34/22/8 86/24/8
usemtl Material.004
f 25/67/27 33/19/27 100/21/27
usemtl Material.006
f 22/81/27 39/178/27 38/16/27
f 23/82/29 40/177/29 36/13/29
f 24/83/84 32/7/84 54/9/84
f 51/74/85 54/9/85 40/84/85
f 41/79/86 53/76/86 31/86/86
f 31/86/87 53/76/87 52/78/87
f 65/75/88 51/74/88 23/85/88
f 87/50/17 50/10/17 20/90/17
f 3/92/89 42/43/89 49/42/89
f 101/40/13 48/4/13 15/94/13
f 5/96/90 44/33/90 47/32/90
usemtl Material.004
f 88/30/10 46/29/10 9/98/10
f 102/27/9 45/26/9 11/100/9
usemtl Material.006
f 50/10/91 41/12/91 1/102/91
f 40/84/92 54/9/92 44/8/92
f 48/4/93 43/6/93 7/104/93
f 57/105/94 66/1/94 42/3/94
f 21/88/95 52/78/95 66/1/95
f 43/107/96 65/75/96 56/89/96
f 8/109/97 58/73/97 65/75/97
f 7/110/98 56/71/98 62/57/98
usemtl Material.001
f 4/41/45 74/180/45 75/112/45
f 58/114/46 70/181/46 72/115/46
usemtl Material.006
f 81/117/8 9/170/8 60/118/8
usemtl Material.001
f 58/73/47 8/109/47 68/119/47
usemtl Material.006
f 15/111/8 62/57/8 104/59/8
f 3/122/99 17/161/99 63/123/99
usemtl Material.001
f 64/124/49 78/156/49 73/125/49
usemtl Material.006
f 52/78/100 22/77/100 55/127/100
usemtl Material.001
f 105/128/101 69/182/101 71/129/101
f 68/131/102 67/169/102 72/132/102
f 61/116/53 72/115/53 106/134/53
f 95/39/54 10/158/54 69/136/54
f 59/138/103 71/183/103 69/139/103
f 8/5/56 13/166/56 67/141/56
f 74/143/104 73/184/104 78/144/104
f 75/145/105 78/144/105 92/146/105
f 55/127/59 73/185/59 74/148/59
f 19/113/10 75/112/10 91/149/10
f 59/150/60 10/186/60 76/151/60
f 59/153/61 77/187/61 92/154/61
f 90/155/61 92/154/61 78/156/61
f 79/28/10 91/149/10 76/157/10
f 91/147/106 92/146/106 77/159/106
usemtl Material.006
f 17/161/8 81/117/8 89/63/8
f 49/42/10 88/30/10 81/99/10
usemtl Material.004
f 45/26/17 87/50/17 80/91/17
usemtl Material.006
f 84/65/8 86/24/8 37/44/8
usemtl Material.004
f 83/52/27 85/47/27 33/19/27
usemtl Material.006
f 63/123/8 89/63/8 84/65/8
usemtl Material.004
f 90/53/21 83/52/21 25/67/21
f 12/163/17 82/49/17 87/50/17
f 33/19/7 85/47/7 82/48/7
usemtl Material.006
f 19/113/10 79/28/10 88/30/10
f 86/24/8 80/23/8 20/165/8
usemtl Material.001
f 13/166/54 95/39/54 105/137/54
f 103/135/53 106/134/53 71/167/53
f 67/169/107 105/128/107 106/130/107
usemtl Material.006
f 93/121/8 104/59/8 60/118/8
f 47/32/9 102/27/9 96/101/9
usemtl Material.004
f 46/29/13 101/40/13 93/95/13
usemtl Material.006
f 98/68/27 100/21/27 35/34/27
f 97/58/8 99/37/8 34/22/8
f 61/171/108 103/66/108 98/68/108
f 104/59/8 97/58/8 26/64/8
usemtl Material.004
f 10/158/13 95/39/13 101/40/13
usemtl Material.006
f 34/22/8 99/37/8 96/38/8
f 16/173/9 94/25/9 102/27/9
f 100/21/109 94/20/109 16/174/109
