# Blender v2.79 (sub 0) OBJ File: ''
# www.blender.org
mtllib Monitor.mtl
o Monitor
v -0.759868 0.017708 -0.639587
v -0.759868 0.003926 -0.639587
v -0.759868 0.017708 -0.612025
v -0.759868 0.003926 -0.612025
v 0.756010 0.017708 -0.612025
v 0.756010 0.003926 -0.612025
v 0.756010 0.017708 -0.639587
v 0.756010 0.003926 -0.639587
v 0.734571 0.175207 0.814194
v 0.734571 0.175207 0.831444
v 0.734571 0.205207 0.814194
v 0.734571 0.205207 0.831444
v 0.776571 0.205207 0.814194
v 0.776571 0.205207 0.831444
v 0.776571 0.175207 0.814194
v 0.776571 0.175207 0.831444
v 0.569946 0.122707 0.853569
v 0.558414 0.150550 0.853569
v 0.530571 0.122707 0.853569
v 0.558414 0.094864 0.853569
v 0.530571 0.083332 0.853569
v 0.502729 0.094864 0.853569
v 0.491196 0.122707 0.853569
v 0.502729 0.150550 0.853569
v 0.530571 0.162082 0.853569
v 0.558414 0.150550 0.814194
v 0.569946 0.122707 0.814194
v 0.558414 0.094865 0.814194
v 0.530571 0.083332 0.814194
v 0.502729 0.094865 0.814194
v 0.491196 0.122707 0.814194
v 0.502729 0.150550 0.814194
v 0.530571 0.162082 0.814194
v 0.398383 1.667708 -0.723306
v 0.398383 1.667707 0.326694
v 0.796822 1.667708 -0.723306
v 0.398383 1.667707 0.776694
v 0.796822 1.667707 0.776694
v -0.796929 1.667708 -0.723306
v -0.398492 1.667708 -0.723306
v -0.796929 0.017708 -0.723306
v 0.796822 0.017708 -0.723306
v -0.000054 1.667708 -0.723306
v -0.796929 0.017707 0.814194
v 0.796822 0.017707 0.814194
v 0.756010 0.017707 0.707975
v -0.759868 0.017707 0.707975
v 0.756010 0.017707 0.680413
v -0.759868 0.017707 0.680413
v 0.796822 0.248707 0.814194
v 0.796822 0.347707 0.776694
v -0.796929 0.248707 0.814194
v -0.796929 0.347707 0.776694
v -0.796929 1.667707 0.776694
v -0.646929 1.517707 0.696726
v -0.646929 0.497707 0.696725
v -0.398492 1.517707 0.696726
v 0.646821 0.497707 0.696725
v -0.000054 1.517707 0.696726
v 0.398383 1.517707 0.696726
v 0.646821 1.517707 0.696726
v -0.338726 1.746677 -0.618306
v -0.338726 1.746676 0.221694
v -0.000054 1.746677 -0.618306
v -0.000054 1.746676 0.221694
v -0.398492 1.667707 0.776694
v -0.398492 1.667707 0.326694
v 0.338618 1.746677 -0.618306
v 0.338618 1.746676 0.221694
v -0.000054 1.667707 0.326694
v -0.000054 1.667707 0.776694
v -0.184085 0.347707 0.776694
v -0.184085 0.282082 0.801552
v 0.165227 0.282082 0.801552
v 0.165227 0.347707 0.776694
v -0.721929 1.592707 0.776694
v -0.721929 0.422707 0.776694
v 0.721821 0.422707 0.776694
v 0.165227 0.383332 0.776694
v -0.184085 0.383332 0.776694
v 0.721821 1.592707 0.776694
v 0.398383 1.592707 0.776694
v -0.000054 1.592707 0.776694
v -0.398492 1.592707 0.776694
v -0.721929 1.592707 0.621726
v -0.721929 0.422707 0.621725
v 0.721821 0.422707 0.621725
v 0.721821 1.592707 0.621726
v 0.398383 1.592707 0.621726
v -0.000054 1.592707 0.621726
v -0.398492 1.592707 0.621726
v 0.658071 0.083332 0.814194
v 0.630229 0.094865 0.814194
v 0.685913 0.094865 0.814194
v 0.697446 0.122707 0.814194
v 0.685913 0.150550 0.814194
v 0.618696 0.122707 0.814194
v 0.630229 0.150550 0.814194
v 0.658071 0.162082 0.814194
v -0.184085 0.282082 0.819819
v 0.165227 0.282082 0.819819
v -0.184085 0.383332 0.819819
v 0.165227 0.383332 0.819819
v 0.658071 0.162082 0.853569
v 0.685913 0.150550 0.853569
v 0.630229 0.150550 0.853569
v 0.618696 0.122707 0.853569
v 0.630229 0.094864 0.853569
v 0.658071 0.083332 0.853569
v 0.685913 0.094864 0.853569
v 0.697446 0.122707 0.853569
v 0.658071 0.122707 0.853569
v -0.759868 0.003926 0.707975
v 0.756010 0.003926 0.707975
v 0.756010 0.003926 0.680413
v -0.759868 0.003926 0.680413
vt 0.019410 0.705716
vt 0.009820 0.705716
vt 0.019410 0.687571
vt 0.009820 0.687571
vt 0.019410 0.705716
vt 0.009820 0.705716
vt 0.019410 0.687571
vt 0.009820 0.687571
vt 0.119787 0.701647
vt 0.034525 0.701647
vt 0.119787 0.692419
vt 0.034525 0.692419
vt 0.034525 0.697033
vt 0.034525 0.692419
vt 0.119787 0.697033
vt 0.119787 0.692419
vt 0.119787 0.697033
vt 0.119787 0.701647
vt 0.034525 0.697033
vt 0.034525 0.701647
vt 0.600224 0.497996
vt 0.600224 0.507454
vt 0.583776 0.497996
vt 0.583776 0.507454
vt 0.600224 0.497996
vt 0.600224 0.507454
vt 0.583776 0.497996
vt 0.583776 0.507454
vt 0.601693 0.490285
vt 0.601693 0.480827
vt 0.624720 0.490285
vt 0.624720 0.480827
vt 0.601693 0.490285
vt 0.601693 0.480827
vt 0.624720 0.490285
vt 0.624720 0.480827
vt 0.566686 0.506055
vt 0.566686 0.483028
vt 0.583134 0.506055
vt 0.583134 0.483028
vt 0.659554 0.176163
vt 0.649450 0.200554
vt 0.625059 0.174783
vt 0.649450 0.151771
vt 0.625059 0.141668
vt 0.600668 0.151771
vt 0.590565 0.176163
vt 0.600668 0.200554
vt 0.625059 0.210657
vt 0.585678 0.202054
vt 0.585678 0.220271
vt 0.582650 0.202054
vt 0.582650 0.220271
vt 0.579621 0.202054
vt 0.579621 0.220271
vt 0.576592 0.202054
vt 0.576592 0.220271
vt 0.573564 0.202054
vt 0.573564 0.220271
vt 0.570535 0.202054
vt 0.570535 0.220271
vt 0.567507 0.202054
vt 0.567507 0.220271
vt 0.564478 0.202054
vt 0.564478 0.220271
vt 0.561449 0.202054
vt 0.561449 0.220271
vt 0.487875 0.272255
vt 0.487875 0.096260
vt 0.554659 0.272255
vt 0.487875 0.020834
vt 0.554659 0.020834
vt 0.279964 0.280148
vt 0.213180 0.280148
vt 0.279964 0.003584
vt 0.012829 0.003584
vt 0.146396 0.280148
vt 0.079612 0.280148
vt 0.012829 0.280148
vt 0.561054 0.468836
vt 0.568103 0.465716
vt 0.690523 0.468836
vt 0.570424 0.465715
vt 0.561054 0.334630
vt 0.568103 0.338066
vt 0.690523 0.334630
vt 0.570424 0.338066
vt 0.681579 0.338066
vt 0.681579 0.465715
vt 0.679258 0.338066
vt 0.679258 0.465716
vt 0.546272 0.284818
vt 0.288565 0.284818
vt 0.546272 0.323537
vt 0.539986 0.340131
vt 0.288565 0.561382
vt 0.539986 0.561382
vt 0.288565 0.284818
vt 0.546272 0.284818
vt 0.288565 0.561382
vt 0.546272 0.323537
vt 0.539986 0.340131
vt 0.539986 0.561382
vt 0.253818 0.367932
vt 0.253818 0.538898
vt 0.212177 0.367932
vt 0.036967 0.538898
vt 0.145393 0.367932
vt 0.078609 0.367932
vt 0.036967 0.367932
vt 0.364325 0.254655
vt 0.364325 0.113859
vt 0.421091 0.254655
vt 0.421091 0.113859
vt 0.287523 0.020834
vt 0.354307 0.020834
vt 0.287523 0.272255
vt 0.354307 0.096260
vt 0.354307 0.272255
vt 0.477857 0.254655
vt 0.477857 0.113859
vt 0.421091 0.096260
vt 0.421091 0.020834
vt 0.113826 0.341195
vt 0.011105 0.341195
vt 0.113826 0.330196
vt 0.011105 0.324602
vt 0.278240 0.324602
vt 0.172376 0.330196
vt 0.278240 0.341195
vt 0.172376 0.341195
vt 0.011105 0.562446
vt 0.023676 0.549875
vt 0.023676 0.353767
vt 0.265669 0.353767
vt 0.172376 0.347167
vt 0.113826 0.347167
vt 0.278240 0.562446
vt 0.265669 0.549875
vt 0.211456 0.562446
vt 0.211456 0.549875
vt 0.144673 0.562446
vt 0.144673 0.549875
vt 0.077889 0.562446
vt 0.077889 0.549875
vt 0.553965 0.522423
vt 0.634568 0.522423
vt 0.553965 0.533065
vt 0.634568 0.533065
vt 0.554192 0.523443
vt 0.634341 0.523443
vt 0.554192 0.532046
vt 0.634341 0.532046
vt 0.553981 0.522408
vt 0.634552 0.522408
vt 0.553981 0.533080
vt 0.634552 0.533080
vt 0.554144 0.523438
vt 0.572120 0.523438
vt 0.554144 0.532051
vt 0.572120 0.532051
vt 0.594267 0.523438
vt 0.594267 0.532051
vt 0.616412 0.523438
vt 0.616412 0.532051
vt 0.634389 0.523438
vt 0.634389 0.532051
vt 0.553256 0.540281
vt 0.634423 0.540281
vt 0.558447 0.547619
vt 0.629207 0.547619
vt 0.553484 0.540986
vt 0.634194 0.540986
vt 0.557677 0.546915
vt 0.630002 0.546915
vt 0.553272 0.540273
vt 0.634407 0.540272
vt 0.558470 0.547628
vt 0.629204 0.547628
vt 0.553436 0.540978
vt 0.571538 0.540978
vt 0.557631 0.546909
vt 0.571538 0.546909
vt 0.593839 0.540978
vt 0.593836 0.546913
vt 0.616140 0.540978
vt 0.616137 0.546920
vt 0.634242 0.540978
vt 0.630042 0.546923
vt 0.274846 0.317310
vt 0.278240 0.285883
vt 0.274846 0.312282
vt 0.267806 0.317310
vt 0.254984 0.296882
vt 0.011105 0.285883
vt 0.233613 0.296882
vt 0.238280 0.298815
vt 0.250317 0.298815
vt 0.228946 0.298815
vt 0.259651 0.298815
vt 0.261584 0.303482
vt 0.267806 0.312282
vt 0.259651 0.308149
vt 0.240213 0.303482
vt 0.248384 0.303482
vt 0.227013 0.303482
vt 0.228946 0.308149
vt 0.238280 0.308149
vt 0.250317 0.308149
vt 0.254984 0.310082
vt 0.233613 0.310082
vt 0.564637 0.014442
vt 0.564637 0.172550
vt 0.576528 0.030253
vt 0.576528 0.156739
vt 0.421091 0.272255
vt 0.564637 0.172550
vt 0.564637 0.014442
vt 0.576528 0.156739
vt 0.576528 0.030253
vt 0.562833 0.290680
vt 0.698640 0.290680
vt 0.562833 0.330044
vt 0.698640 0.330044
vt 0.713975 0.345017
vt 0.707481 0.345017
vt 0.713975 0.292417
vt 0.707481 0.292417
vt 0.709655 0.292417
vt 0.712405 0.292417
vt 0.709655 0.345017
vt 0.712405 0.345017
vt 0.717252 0.344152
vt 0.723746 0.344152
vt 0.717252 0.338787
vt 0.723746 0.328905
vt 0.720995 0.328905
vt 0.723746 0.328905
vt 0.723746 0.344152
vt 0.720995 0.328905
vt 0.717252 0.338787
vt 0.717252 0.344152
vt 0.564478 0.251289
vt 0.564478 0.269506
vt 0.561449 0.251289
vt 0.561449 0.269506
vt 0.567507 0.251289
vt 0.567507 0.269506
vt 0.570535 0.251289
vt 0.570535 0.269506
vt 0.573564 0.251289
vt 0.573564 0.269506
vt 0.576592 0.251289
vt 0.576592 0.269506
vt 0.579621 0.251289
vt 0.579621 0.269506
vt 0.582650 0.251289
vt 0.582650 0.269506
vt 0.585678 0.251289
vt 0.585678 0.269506
vt 0.649450 0.273349
vt 0.625059 0.283452
vt 0.625059 0.247578
vt 0.600668 0.273349
vt 0.590564 0.248957
vt 0.600668 0.224566
vt 0.625059 0.214463
vt 0.649450 0.224566
vt 0.659554 0.248957
vt 0.119787 0.697033
vt 0.119787 0.701647
vt 0.034525 0.697033
vt 0.034525 0.701647
vt 0.034525 0.697033
vt 0.034525 0.692419
vt 0.119787 0.697033
vt 0.119787 0.692419
vt 0.119787 0.701647
vt 0.034525 0.701647
vt 0.119787 0.692419
vt 0.034525 0.692419
vt 0.019410 0.705716
vt 0.009820 0.705716
vt 0.019410 0.687571
vt 0.009820 0.687571
vt 0.019410 0.705716
vt 0.009820 0.705716
vt 0.019410 0.687571
vt 0.009820 0.687571
vn -1.0000 0.0000 0.0000
vn 1.0000 0.0000 0.0000
vn 0.0000 -1.0000 -0.0000
vn 0.0000 0.0000 -1.0000
vn 0.0000 0.0000 1.0000
vn 0.0000 1.0000 0.0000
vn 0.9239 0.3827 0.0000
vn 0.9239 -0.3827 0.0000
vn 0.3827 -0.9239 -0.0000
vn -0.3827 -0.9239 -0.0000
vn -0.9239 -0.3827 -0.0000
vn -0.9239 0.3827 0.0000
vn -0.3827 0.9239 0.0000
vn 0.3827 0.9239 0.0000
vn 0.0000 0.3542 0.9352
vn -0.7071 -0.0000 0.7071
vn 0.0000 -0.7071 0.7071
vn 0.7071 -0.0000 0.7071
vn 0.0000 0.7071 0.7071
vn -0.7974 0.6035 0.0000
vn 0.0000 0.7992 0.6011
vn 0.0000 0.7992 -0.6011
vn 0.7974 0.6035 0.0000
usemtl lambert3SG
s 1
f 1/1/1 2/2/1 3/3/1
f 3/3/1 2/2/1 4/4/1
f 5/5/2 6/6/2 7/7/2
f 7/7/2 6/6/2 8/8/2
f 2/9/3 8/10/3 4/11/3
f 4/11/3 8/10/3 6/12/3
f 7/13/4 8/14/4 1/15/4
f 1/15/4 8/14/4 2/16/4
f 3/17/5 4/18/5 5/19/5
f 5/19/5 4/18/5 6/20/5
f 9/21/1 10/22/1 11/23/1
f 11/23/1 10/22/1 12/24/1
f 13/25/2 14/26/2 15/27/2
f 15/27/2 14/26/2 16/28/2
f 15/29/3 16/30/3 9/31/3
f 9/31/3 16/30/3 10/32/3
f 11/33/6 12/34/6 13/35/6
f 13/35/6 12/34/6 14/36/6
f 10/37/5 16/38/5 12/39/5
f 12/39/5 16/38/5 14/40/5
f 17/41/5 18/42/5 19/43/5
f 20/44/5 17/41/5 19/43/5
f 21/45/5 20/44/5 19/43/5
f 22/46/5 21/45/5 19/43/5
f 23/47/5 22/46/5 19/43/5
f 24/48/5 23/47/5 19/43/5
f 25/49/5 24/48/5 19/43/5
f 18/42/5 25/49/5 19/43/5
f 26/50/7 18/51/7 27/52/7
f 27/52/7 18/51/7 17/53/7
f 27/52/8 17/53/8 28/54/8
f 28/54/8 17/53/8 20/55/8
f 28/54/9 20/55/9 29/56/9
f 29/56/9 20/55/9 21/57/9
f 29/56/10 21/57/10 30/58/10
f 30/58/10 21/57/10 22/59/10
f 30/58/11 22/59/11 31/60/11
f 31/60/11 22/59/11 23/61/11
f 31/60/12 23/61/12 32/62/12
f 32/62/12 23/61/12 24/63/12
f 32/62/13 24/63/13 33/64/13
f 33/64/13 24/63/13 25/65/13
f 33/64/14 25/65/14 26/66/14
f 26/66/14 25/65/14 18/67/14
f 34/68/6 35/69/6 36/70/6
f 37/71/6 38/72/6 35/69/6
f 35/69/6 38/72/6 36/70/6
f 39/73/4 40/74/4 41/75/4
f 41/75/4 40/74/4 42/76/4
f 40/74/4 43/77/4 42/76/4
f 43/77/4 34/78/4 42/76/4
f 34/78/4 36/79/4 42/76/4
f 41/80/3 1/81/3 44/82/3
f 1/81/3 3/83/3 44/82/3
f 41/80/3 42/84/3 1/81/3
f 1/81/3 42/84/3 7/85/3
f 42/84/3 45/86/3 7/85/3
f 7/85/3 45/86/3 5/87/3
f 45/86/3 44/82/3 46/88/3
f 46/88/3 44/82/3 47/89/3
f 46/88/3 48/90/3 45/86/3
f 45/86/3 48/90/3 5/87/3
f 5/87/3 48/90/3 3/83/3
f 47/89/3 44/82/3 49/91/3
f 44/82/3 3/83/3 49/91/3
f 3/83/3 48/90/3 49/91/3
f 45/92/2 42/93/2 50/94/2
f 50/94/2 42/93/2 51/95/2
f 42/93/2 36/96/2 51/95/2
f 36/96/2 38/97/2 51/95/2
f 41/98/1 44/99/1 39/100/1
f 44/99/1 52/101/1 39/100/1
f 52/101/1 53/102/1 39/100/1
f 53/102/1 54/103/1 39/100/1
f 55/104/5 56/105/5 57/106/5
f 56/105/5 58/107/5 57/106/5
f 57/106/5 58/107/5 59/108/5
f 59/108/5 58/107/5 60/109/5
f 58/107/5 61/110/5 60/109/5
f 62/111/6 63/112/6 64/113/6
f 64/113/6 63/112/6 65/114/6
f 54/115/6 66/116/6 39/117/6
f 66/116/6 67/118/6 39/117/6
f 67/118/6 40/119/6 39/117/6
f 64/113/6 65/114/6 68/120/6
f 68/120/6 65/114/6 69/121/6
f 70/122/6 67/118/6 71/123/6
f 71/123/6 67/118/6 66/116/6
f 35/69/6 70/122/6 37/71/6
f 37/71/6 70/122/6 71/123/6
f 72/124/15 53/125/15 73/126/15
f 53/125/15 52/127/15 73/126/15
f 52/127/15 50/128/15 73/126/15
f 73/126/15 50/128/15 74/129/15
f 50/128/15 51/130/15 74/129/15
f 51/130/15 75/131/15 74/129/15
f 54/132/5 53/125/5 76/133/5
f 76/133/5 53/125/5 77/134/5
f 51/130/5 78/135/5 75/131/5
f 53/125/5 72/124/5 77/134/5
f 75/131/5 78/135/5 79/136/5
f 78/135/5 77/134/5 79/136/5
f 79/136/5 77/134/5 80/137/5
f 77/134/5 72/124/5 80/137/5
f 51/130/5 38/138/5 78/135/5
f 78/135/5 38/138/5 81/139/5
f 38/138/5 37/140/5 81/139/5
f 81/139/5 37/140/5 82/141/5
f 37/140/5 71/142/5 82/141/5
f 82/141/5 71/142/5 83/143/5
f 71/142/5 66/144/5 83/143/5
f 83/143/5 66/144/5 84/145/5
f 54/132/5 76/133/5 66/144/5
f 66/144/5 76/133/5 84/145/5
f 76/146/2 77/147/2 85/148/2
f 85/148/2 77/147/2 86/149/2
f 77/150/6 78/151/6 86/152/6
f 86/152/6 78/151/6 87/153/6
f 78/154/1 81/155/1 87/156/1
f 87/156/1 81/155/1 88/157/1
f 81/158/3 82/159/3 88/160/3
f 88/160/3 82/159/3 89/161/3
f 82/159/3 83/162/3 89/161/3
f 89/161/3 83/162/3 90/163/3
f 83/162/3 84/164/3 90/163/3
f 90/163/3 84/164/3 91/165/3
f 84/164/3 76/166/3 91/165/3
f 91/165/3 76/166/3 85/167/3
f 85/168/16 86/169/16 55/170/16
f 55/170/16 86/169/16 56/171/16
f 86/172/17 87/173/17 56/174/17
f 56/174/17 87/173/17 58/175/17
f 87/176/18 88/177/18 58/178/18
f 58/178/18 88/177/18 61/179/18
f 88/180/19 89/181/19 61/182/19
f 61/182/19 89/181/19 60/183/19
f 89/181/19 90/184/19 60/183/19
f 60/183/19 90/184/19 59/185/19
f 90/184/19 91/186/19 59/185/19
f 59/185/19 91/186/19 57/187/19
f 85/188/19 55/189/19 91/186/19
f 91/186/19 55/189/19 57/187/19
f 50/128/5 13/190/5 45/191/5
f 13/190/5 15/192/5 45/191/5
f 50/128/5 52/127/5 13/190/5
f 13/190/5 52/127/5 11/193/5
f 45/191/5 92/194/5 44/195/5
f 92/194/5 29/196/5 44/195/5
f 29/196/5 92/194/5 28/197/5
f 92/194/5 93/198/5 28/197/5
f 29/196/5 30/199/5 44/195/5
f 92/194/5 45/191/5 94/200/5
f 45/191/5 15/192/5 94/200/5
f 94/200/5 15/192/5 95/201/5
f 15/192/5 9/202/5 95/201/5
f 95/201/5 9/202/5 96/203/5
f 28/197/5 93/198/5 27/204/5
f 93/198/5 97/205/5 27/204/5
f 30/199/5 31/206/5 44/195/5
f 44/195/5 31/206/5 52/127/5
f 11/193/5 52/127/5 9/202/5
f 31/206/5 32/207/5 52/127/5
f 27/204/5 97/205/5 26/208/5
f 97/205/5 98/209/5 26/208/5
f 96/203/5 9/202/5 99/210/5
f 9/202/5 52/127/5 99/210/5
f 32/207/5 33/211/5 52/127/5
f 26/208/5 98/209/5 33/211/5
f 52/127/5 33/211/5 99/210/5
f 33/211/5 98/209/5 99/210/5
f 40/212/20 67/213/20 62/214/20
f 62/214/20 67/213/20 63/215/20
f 67/118/21 70/122/21 63/112/21
f 63/112/21 70/122/21 65/114/21
f 40/119/22 62/111/22 43/216/22
f 43/216/22 62/111/22 64/113/22
f 35/69/21 69/121/21 70/122/21
f 70/122/21 69/121/21 65/114/21
f 35/217/23 34/218/23 69/219/23
f 69/219/23 34/218/23 68/220/23
f 34/68/22 43/216/22 68/120/22
f 68/120/22 43/216/22 64/113/22
f 100/221/5 101/222/5 102/223/5
f 102/223/5 101/222/5 103/224/5
f 80/225/6 102/226/6 79/227/6
f 79/227/6 102/226/6 103/228/6
f 74/229/3 101/230/3 73/231/3
f 73/231/3 101/230/3 100/232/3
f 79/233/2 103/234/2 75/235/2
f 101/236/2 74/237/2 103/234/2
f 103/234/2 74/237/2 75/235/2
f 100/238/1 102/239/1 73/240/1
f 73/240/1 102/239/1 72/241/1
f 72/241/1 102/239/1 80/242/1
f 99/243/14 104/244/14 96/245/14
f 96/245/14 104/244/14 105/246/14
f 98/247/13 106/248/13 99/243/13
f 99/243/13 106/248/13 104/244/13
f 97/249/12 107/250/12 98/247/12
f 98/247/12 107/250/12 106/248/12
f 93/251/11 108/252/11 97/249/11
f 97/249/11 108/252/11 107/250/11
f 92/253/10 109/254/10 93/251/10
f 93/251/10 109/254/10 108/252/10
f 94/255/9 110/256/9 92/253/9
f 92/253/9 110/256/9 109/254/9
f 95/257/8 111/258/8 94/255/8
f 94/255/8 111/258/8 110/256/8
f 96/259/7 105/260/7 95/257/7
f 95/257/7 105/260/7 111/258/7
f 105/261/5 104/262/5 112/263/5
f 104/262/5 106/264/5 112/263/5
f 106/264/5 107/265/5 112/263/5
f 107/265/5 108/266/5 112/263/5
f 108/266/5 109/267/5 112/263/5
f 109/267/5 110/268/5 112/263/5
f 110/268/5 111/269/5 112/263/5
f 111/269/5 105/261/5 112/263/5
f 47/270/5 113/271/5 46/272/5
f 46/272/5 113/271/5 114/273/5
f 48/274/4 115/275/4 49/276/4
f 49/276/4 115/275/4 116/277/4
f 116/278/3 115/279/3 113/280/3
f 113/280/3 115/279/3 114/281/3
f 46/282/2 114/283/2 48/284/2
f 48/284/2 114/283/2 115/285/2
f 49/286/1 116/287/1 47/288/1
f 47/288/1 116/287/1 113/289/1
